<svg id="visual" viewBox="0 0 960 540" width="960" height="540" xmlns="http://www.w3.org/2000/svg" xmlns:xlink="http://www.w3.org/1999/xlink" version="1.1"><rect x="0" y="0" width="960" height="540" fill="#111425"></rect><path d="M0 171L16 154.8C32 138.7 64 106.3 96 93.3C128 80.3 160 86.7 192 97.7C224 108.7 256 124.3 288 136.2C320 148 352 156 384 146.5C416 137 448 110 480 110.5C512 111 544 139 576 149.2C608 159.3 640 151.7 672 156.8C704 162 736 180 768 177.8C800 175.7 832 153.3 864 139.8C896 126.3 928 121.7 944 119.3L960 117L960 0L944 0C928 0 896 0 864 0C832 0 800 0 768 0C736 0 704 0 672 0C640 0 608 0 576 0C544 0 512 0 480 0C448 0 416 0 384 0C352 0 320 0 288 0C256 0 224 0 192 0C160 0 128 0 96 0C64 0 32 0 16 0L0 0Z" fill="#f9fafb" stroke-linecap="round" stroke-linejoin="miter"></path></svg>