<svg id="visual" viewBox="0 0 960 540" width="960" height="540" xmlns="http://www.w3.org/2000/svg" xmlns:xlink="http://www.w3.org/1999/xlink" version="1.1"><rect x="0" y="0" width="960" height="540" fill="#111425"></rect><path d="M0 321L13.3 311.3C26.7 301.7 53.3 282.3 80 265.8C106.7 249.3 133.3 235.7 160 233.8C186.7 232 213.3 242 240 243.5C266.7 245 293.3 238 320 232.5C346.7 227 373.3 223 400 230.7C426.7 238.3 453.3 257.7 480 270C506.7 282.3 533.3 287.7 560 285.7C586.7 283.7 613.3 274.3 640 268.7C666.7 263 693.3 261 720 266.8C746.7 272.7 773.3 286.3 800 285.2C826.7 284 853.3 268 880 265.8C906.7 263.7 933.3 275.3 946.7 281.2L960 287L960 541L946.7 541C933.3 541 906.7 541 880 541C853.3 541 826.7 541 800 541C773.3 541 746.7 541 720 541C693.3 541 666.7 541 640 541C613.3 541 586.7 541 560 541C533.3 541 506.7 541 480 541C453.3 541 426.7 541 400 541C373.3 541 346.7 541 320 541C293.3 541 266.7 541 240 541C213.3 541 186.7 541 160 541C133.3 541 106.7 541 80 541C53.3 541 26.7 541 13.3 541L0 541Z" fill="#f9fafb" stroke-linecap="round" stroke-linejoin="miter"></path></svg>