<svg id="visual" viewBox="0 0 900 600" width="900" height="600" xmlns="http://www.w3.org/2000/svg" xmlns:xlink="http://www.w3.org/1999/xlink" version="1.1"><path d="M0 460L21.5 469.8C43 479.7 86 499.3 128.8 507.5C171.7 515.7 214.3 512.3 257.2 507.5C300 502.7 343 496.3 385.8 486.8C428.7 477.3 471.3 464.7 514.2 469.5C557 474.3 600 496.7 642.8 500C685.7 503.3 728.3 487.7 771.2 472.2C814 456.7 857 441.3 878.5 433.7L900 426L900 601L878.5 601C857 601 814 601 771.2 601C728.3 601 685.7 601 642.8 601C600 601 557 601 514.2 601C471.3 601 428.7 601 385.8 601C343 601 300 601 257.2 601C214.3 601 171.7 601 128.8 601C86 601 43 601 21.5 601L0 601Z" fill="#111425" stroke-linecap="round" stroke-linejoin="miter"></path></svg>